<?xml version="1.0" encoding="utf-8"?>
<!-- Generator: Adobe Illustrator 26.0.3, SVG Export Plug-In . SVG Version: 6.00 Build 0)  -->
<svg version="1.0" id="katman_1" xmlns="http://www.w3.org/2000/svg" xmlns:xlink="http://www.w3.org/1999/xlink" x="0px" y="0px"
	 viewBox="0 0 600 450" style="enable-background:new 0 0 600 450;" xml:space="preserve">
<style type="text/css">
	.st0{display:none;}
	.st1{display:inline;fill:none;stroke:#E6391E;stroke-width:1.8171;}
	.st2{fill:#37110E;}
</style>
<g id="guidelines" class="st0">
	<line class="st1" x1="360.9" y1="109.5" x2="299.4" y2="359.1"/>
	<line class="st1" x1="398" y1="122.3" x2="336.5" y2="371.9"/>
</g>
<g id="Layer_3">
	<path class="st2" d="M100.3,263.3l-24.1,21.8c0,0,11.8,14.8,27.5,23.6c15.7,8.9,24.3,8.2,41.9,8c16.9,0,34.2-3.2,48-15.5
		c13.9-12.3,16.5-15.6,16.4-31.1c0-7.3-2-23.3-10.7-33.6c-9.9-11.7-26.9-17.4-26.9-17.4s-51.8-13-46.5-31c2.2-7.6,14.2-10.4,26-8.3
		c14.9,2.6,29.9,11.6,29.9,11.6l21-20.6c0,0-9.6-11.3-24.5-18.5c-11-5.4-26.2-7.4-35.9-7.4c-22.9-0.1-51.5,20.3-54.9,41.5
		c-2.5,15.4,2.5,28.5,13.9,38.4c14.3,12.5,24.5,14.1,24.5,14.1s45.7,11.8,45.7,26s-11.1,19.4-28.8,19.7S100.3,263.3,100.3,263.3z"/>
	<path class="st2" d="M429.4,152.5l0.4,33.1h18.9l0.2,97.9c0,0,3.3,11.3,11.8,19.6c11,10.8,22.5,13.5,22.5,13.5h37.1l0.2-33.7
		l-20-0.2c0,0-4.4,0.2-9.3-4.5c-5.1-4.9-4.9-11.3-4.9-11.3l0.4-81.6H523l0.2-33.1l-36.3-0.2l-0.4-64h-37.8l0.4,64.3L429.4,152.5
		L429.4,152.5z"/>
	<path class="st2" d="M353.3,160.4c-22.8-5-45.9-2.5-60.6,6.1L312,88.1l-38.5-9.4l-54.7,220.7l38.2,11l5.3-21.6
		c11.2,21.2,24,31.4,48.5,36.9c45.4,10.3,86-21.4,96.9-70.3C416.9,213.5,388.3,168.1,353.3,160.4z M364.4,282.6l-54.8,15.1
		l-40.9-41.4l13.9-56.5l54.8-15.1l40.9,41.4L364.4,282.6z"/>
</g>
</svg>
